name Walk4.mot
datacolumns 19
datarows 20
range 3.13500000 3.23000000
endheader

                time	   L_ground_force_vx	   L_ground_force_vy	   L_ground_force_vz	   L_ground_force_px	   L_ground_force_py	   L_ground_force_pz	   R_ground_force_vx	   R_ground_force_vy	   R_ground_force_vz	   R_ground_force_px	   R_ground_force_py	   R_ground_force_pz	   L_ground_torque_x	   L_ground_torque_y	   L_ground_torque_z	   R_ground_torque_x	   R_ground_torque_y	   R_ground_torque_z	
          3.13500000	         -0.00000000	         -0.00000000	         -0.00000000	          0.00000000	          0.00000000	          0.00000000	         29.92413576	        181.97006902	          9.79350129	          0.48023677	          0.00000000	          0.11959034	          0.00000000	         -0.00000000	          0.00000000	          0.00000000	         -5.90507502	          0.00000000	
          3.14000000	         -0.00000000	         -0.00000000	         -0.00000000	          0.00000000	          0.00000000	          0.00000000	         24.72977608	        149.34703601	          8.40071188	          0.47493445	          0.00000000	          0.11718565	          0.00000000	         -0.00000000	          0.00000000	          0.00000000	         -4.95307452	          0.00000000	
          3.14500000	         -0.00000000	         -0.00000000	         -0.00000000	          0.00000000	          0.00000000	          0.00000000	         19.86343023	        120.47693803	          6.92021126	          0.46466852	          0.00000000	          0.11354824	          0.00000000	         -0.00000000	          0.00000000	          0.00000000	         -4.05114891	          0.00000000	
          3.15000000	         -0.00000000	         -0.00000000	         -0.00000000	          0.00000000	          0.00000000	          0.00000000	         15.42589121	         95.21803971	          5.46294794	          0.44825397	          0.00000000	          0.10843805	          0.00000000	         -0.00000000	          0.00000000	          0.00000000	         -3.21851005	          0.00000000	
          3.15500000	         -0.00000000	         -0.00000000	         -0.00000000	          0.00000000	          0.00000000	          0.00000000	         11.49395029	         73.38846041	          4.11214580	          0.42461175	          0.00000000	          0.10166870	          0.00000000	         -0.00000000	          0.00000000	          0.00000000	         -2.47052307	          0.00000000	
          3.16000000	         -0.00000000	         -0.00000000	         -0.00000000	          0.00000000	          0.00000000	          0.00000000	          8.11875402	         54.78452755	          2.92304794	          0.39297823	          0.00000000	          0.09314020	          0.00000000	         -0.00000000	          0.00000000	          0.00000000	         -1.81797916	          0.00000000	
          3.16500000	         -0.00000000	         -0.00000000	         -0.00000000	          0.00000000	          0.00000000	          0.00000000	          5.32606548	         39.19170027	          1.92664246	          0.35319067	          0.00000000	          0.08288386	          0.00000000	         -0.00000000	          0.00000000	          0.00000000	         -1.26666502	          0.00000000	
          3.17000000	          0.00000000	          0.00000000	         -0.00000000	          0.00000000	          0.00000000	          0.00000000	          3.11312307	         26.39297057	          1.13267928	          0.30604752	          0.00000000	          0.07113995	          0.00000000	         -0.00000000	          0.00000000	          0.00000000	         -0.81725291	          0.00000000	
          3.17500000	          0.00000000	          0.00000000	         -0.00000000	          0.00000000	          0.00000000	          0.00000000	          1.44586184	         16.18094817	          0.53293006	          0.25377100	          0.00000000	          0.05845291	          0.00000000	         -0.00000000	          0.00000000	          0.00000000	         -0.46552742	          0.00000000	
          3.18000000	          0.00000000	          0.00000000	         -0.00000000	          0.00000000	          0.00000000	          0.00000000	          0.26206859	          8.35915697	          0.10607671	          0.20039683	          0.00000000	          0.04574144	          0.00000000	         -0.00000000	          0.00000000	          0.00000000	         -0.20324144	          0.00000000	
          3.18500000	          0.00000000	          0.00000000	         -0.00000000	          0.00000000	          0.00000000	          0.00000000	         -0.51780193	          2.68209343	         -0.17604558	          0.15032037	          0.00000000	          0.03397230	          0.00000000	         -0.00000000	          0.00000000	          0.00000000	         -0.01896868	          0.00000000	
          3.19000000	          0.00000000	          0.00000000	          0.00000000	         -0.00000000	          0.00000000	         -0.00000000	         -0.97696592	         -1.17061860	         -0.34304207	          0.10631878	          0.00000000	          0.02373818	          0.00000000	         -0.00000000	          0.00000000	          0.00000000	          0.10070207	          0.00000000	
          3.19500000	          0.00000000	          0.00000000	          0.00000000	         -0.00000000	          0.00000000	         -0.00000000	         -1.19415270	         -3.54870642	         -0.42300320	          0.06969288	          0.00000000	          0.01529783	          0.00000000	         -0.00000000	          0.00000000	          0.00000000	          0.16948028	          0.00000000	
          3.20000000	          0.00000000	          0.00000000	          0.00000000	         -0.00000000	          0.00000000	         -0.00000000	         -1.23898733	         -4.79306830	         -0.44082629	          0.04069354	          0.00000000	          0.00867533	          0.00000000	         -0.00000000	          0.00000000	          0.00000000	          0.20018258	          0.00000000	
          3.20500000	          0.00000000	          0.00000000	          0.00000000	         -0.00000000	          0.00000000	         -0.00000000	         -1.16975000	         -5.21197971	         -0.41739186	          0.01887846	          0.00000000	          0.00374233	          0.00000000	          0.00000000	          0.00000000	          0.00000000	          0.20403934	          0.00000000	
          3.21000000	          0.00000000	          0.00000000	          0.00000000	         -0.00000000	          0.00000000	         -0.00000000	         -1.03283636	         -5.06841492	         -0.36935316	          0.00339581	          0.00000000	          0.00028292	          0.00000000	          0.00000000	          0.00000000	          0.00000000	          0.19037557	          0.00000000	
          3.21500000	          0.00000000	          0.00000000	          0.00000000	         -0.00000000	          0.00000000	         -0.00000000	         -0.86335142	         -4.57549926	         -0.30933551	         -0.00680148	          0.00000000	         -0.00195791	          0.00000000	          0.00000000	          0.00000000	          0.00000000	          0.16655685	          0.00000000	
          3.22000000	          0.00000000	          0.00000000	          0.00000000	         -0.00000000	          0.00000000	         -0.00000000	         -0.68638336	         -3.89753532	         -0.24638265	         -0.01280289	          0.00000000	         -0.00324006	          0.00000000	          0.00000000	          0.00000000	          0.00000000	          0.13810973	          0.00000000	
          3.22500000	          0.00000000	          0.00000000	          0.00000000	         -0.00000000	          0.00000000	         -0.00000000	         -0.51861254	         -3.15452227	         -0.18652632	         -0.01563892	          0.00000000	         -0.00380603	          0.00000000	          0.00000000	          0.00000000	          0.00000000	          0.10894434	          0.00000000	
          3.23000000	          0.00000000	          0.00000000	          0.00000000	         -0.00000000	          0.00000000	         -0.00000000	         -0.37000839	         -2.42855782	         -0.13338963	         -0.01622077	          0.00000000	         -0.00386796	          0.00000000	          0.00000000	          0.00000000	          0.00000000	          0.08162495	          0.00000000	
